<svg width="8" height="8" viewBox="0 0 8 8" fill="none" xmlns="http://www.w3.org/2000/svg">
<path d="M7.09436 2.75821L5.11077 2.46992L4.22405 0.672269C4.19983 0.62305 4.15999 0.583206 4.11077 0.558987C3.98733 0.49805 3.83733 0.548831 3.77561 0.672269L2.88889 2.46992L0.9053 2.75821C0.850613 2.76602 0.800613 2.7918 0.762332 2.83086C0.716052 2.87843 0.690549 2.94243 0.691428 3.00879C0.692307 3.07515 0.719496 3.13844 0.767019 3.18477L2.20218 4.58399L1.86311 6.55977C1.85516 6.60573 1.86025 6.653 1.87779 6.69622C1.89534 6.73943 1.92465 6.77687 1.96238 6.80428C2.00012 6.83169 2.04479 6.84798 2.09132 6.8513C2.13784 6.85461 2.18437 6.84483 2.22561 6.82305L3.99983 5.89024L5.77405 6.82305C5.82249 6.84883 5.87874 6.85742 5.93264 6.84805C6.06858 6.82461 6.15999 6.69571 6.13655 6.55977L5.79749 4.58399L7.23264 3.18477C7.27171 3.14649 7.29749 3.09649 7.3053 3.0418C7.32639 2.90508 7.23108 2.77852 7.09436 2.75821Z" fill="#EAA92A"/>
</svg>
