<svg width="75" height="26" viewBox="0 0 75 26" fill="none" xmlns="http://www.w3.org/2000/svg">
<path d="M6.05392 11.6118C6.05392 11.6118 8.54939 15.8424 7.22924 16.6557C7.22924 16.6557 0.41406 20.9252 3.25209 15.1795C3.25209 15.1795 1.97094 14.954 0.319367 16.9982C0.319367 16.9982 -0.803035 18.4576 1.16047 19.3154C1.16047 19.3154 3.046 20.3989 9.00615 19.7249C9.00615 19.7249 12.3371 19.2235 11.0449 16.703C11.0476 16.703 10.1397 14.4721 6.05392 11.6118Z" fill="#1AAABC"/>
<path d="M10.8279 7.67345C10.8279 7.67345 8.9479 6.6346 2.98775 7.26404C2.98775 7.26404 -0.348817 7.76535 0.943477 10.2859C0.943477 10.2859 1.84864 12.5168 5.94276 15.3771C5.94276 15.3771 3.45287 11.1465 4.76187 10.3332C4.76187 10.3332 11.616 6.111 8.73902 11.8093C8.73902 11.8093 10.0202 12.0851 11.6968 9.99066C11.694 9.99066 12.7914 8.53126 10.8279 7.67345ZM2.16336 8.38922C1.98511 8.38922 1.8375 8.24439 1.8375 8.06336C1.8375 7.88233 1.98233 7.7375 2.16336 7.7375C2.34439 7.7375 2.48922 7.88233 2.48922 8.06336C2.48922 8.24439 2.34439 8.38922 2.16336 8.38922ZM9.92826 8.49227C9.75558 8.49227 9.61633 8.35301 9.61633 8.18034C9.61633 8.00766 9.75558 7.8684 9.92826 7.8684C10.1009 7.8684 10.2402 8.00766 10.2402 8.18034C10.2402 8.35301 10.1009 8.49227 9.92826 8.49227Z" fill="#1AAABC"/>
<path fill-rule="evenodd" clip-rule="evenodd" d="M2.41924 8.47946C2.41924 8.47946 2.52374 8.77961 2.72709 8.47946C2.72709 8.47946 2.60282 7.17506 3.36257 6.08665C4.11384 5.02349 5.09671 4.4597 5.85928 4.50738C6.48063 4.54385 7.33075 4.5943 8.23736 5.54245C8.23736 5.54245 9.22305 6.49621 9.34732 8.40372C9.34732 8.40372 9.49419 8.61691 9.5761 8.32518C9.5761 8.32518 9.70041 6.74066 8.56785 5.34649C7.45507 3.97757 6.55406 3.96515 5.85928 3.96795C5.07694 3.96795 4.02679 4.30157 3.123 5.6761C3.12018 5.67329 2.40229 6.64208 2.41924 8.47946Z" fill="#1AAABC"/>
<path fill-rule="evenodd" clip-rule="evenodd" d="M1.93529 7.98128C1.93529 7.98128 2.05297 8.31355 2.27713 7.98128C2.27713 7.98128 2.17906 6.52265 2.98324 5.32309C4.00229 3.80303 5.13143 3.53675 5.75445 3.53675C6.37747 3.53675 7.24569 3.57842 8.32557 4.69971C8.32557 4.69971 9.64646 5.93977 9.75854 8.03478C9.75854 8.03478 9.94908 8.27131 10.064 7.94749C10.064 7.94749 9.99672 6.09464 8.73861 4.5431C7.50291 3.02253 6.34287 3.02534 5.75445 3C4.77654 3.01971 3.90231 3.36888 2.83754 4.80497C2.84034 4.80497 1.91847 5.94259 1.93529 7.98128Z" fill="#1AAABC"/>
<path d="M17.776 12.64C16.432 12.976 15.976 13.528 15.976 14.296C15.976 15.544 16.672 16.24 17.728 16.24C18.376 16.24 18.832 15.928 19.12 15.424C18.208 15.04 17.512 14.368 17.512 13.504C17.512 13.216 17.584 12.904 17.776 12.64ZM26.368 12.424H19.96C18.76 12.424 18.136 12.808 18.136 13.504C18.136 14.104 18.712 14.704 19.96 15.04C19.72 15.904 19.072 16.672 18.112 16.84C18.184 18.616 18.664 18.808 20.992 18.808V19H13.36V18.808C15.856 18.808 16.216 18.568 16.216 16.36C15.688 15.904 15.352 15.184 15.352 14.296C15.352 13.6 15.664 13.048 16.24 12.64V9.88C16.24 7.48 15.952 7.192 13.36 7.192V7H20.992V7.192C18.4 7.192 18.112 7.48 18.112 9.88V11.944C18.616 11.848 19.192 11.8 19.864 11.8H26.368V9.88C26.368 7.48 26.08 7.192 23.488 7.192V7H31.12V7.192C28.528 7.192 28.24 7.48 28.24 9.88V16.12C28.24 18.544 28.528 18.808 31.12 18.808V19H23.488V18.808C26.08 18.808 26.368 18.544 26.368 16.12V12.544V12.424ZM31.7088 19V18.808C34.3008 18.808 34.5888 18.544 34.5888 15.88V10.12C34.5888 7.504 34.3008 7.192 31.7088 7.192V7H35.8608L44.2128 15.496C44.5728 15.88 44.6448 16.288 44.6448 16.384H44.8128C44.7648 16.12 44.7168 15.784 44.7168 15.376V10.12C44.7168 7.504 44.4288 7.192 41.8368 7.192V7H48.1488V7.192C45.6288 7.192 45.3888 7.48 45.3888 10.12V20.008H45.2688C45.1488 19.408 44.9568 18.952 44.5248 18.496L35.8128 9.616C35.4288 9.232 35.3328 8.752 35.3328 8.656L35.1648 8.68C35.2128 8.944 35.2128 9.712 35.2368 10.12V15.88C35.2368 18.52 35.5248 18.808 38.0208 18.808V19H31.7088ZM48.6334 7H56.2654V7.192C53.6734 7.192 53.3854 7.48 53.3854 9.88V16.12C53.3854 18.544 53.6734 18.808 56.2654 18.808V19H48.6334V18.808C51.2254 18.808 51.5134 18.544 51.5134 16.12V9.88C51.5134 7.48 51.2254 7.192 48.6334 7.192V7ZM60.6972 7.552C58.8252 7.912 58.0332 8.848 58.0332 10.408C58.0332 11.512 59.0172 12.496 60.3612 12.496C61.1052 12.496 61.6812 12.136 61.9452 11.728C60.7692 11.464 59.9292 10.6 59.9292 9.424C59.9292 8.68 60.1692 8.008 60.6972 7.552ZM63.0252 19V18.808C65.6172 18.808 65.9052 18.544 65.9052 16.12V7.648C64.9692 7.552 63.9612 7.48 62.8572 7.48C61.3932 7.48 60.5772 8.152 60.5772 9.424C60.5772 10.48 61.4652 11.176 62.7612 11.176C62.7612 12.256 61.6812 13.144 60.3612 13.144C58.7052 13.144 57.3852 11.92 57.3852 10.408C57.3852 8.032 59.1132 6.76 62.3052 6.76C64.0572 6.76 66.0492 7 68.3532 7H73.5132L73.3932 5.608L73.6572 5.584L74.0172 11.152H73.8732L73.5612 10.192C72.8412 8.056 72.3852 7.648 70.0812 7.648H67.7772V16.12C67.7772 18.544 68.0652 18.808 70.6572 18.808V19H63.0252Z" fill="#1AAABC"/>
</svg>
